<svg width="232" height="40" viewBox="0 0 232 40" fill="none" xmlns="http://www.w3.org/2000/svg">
<path d="M92.0983 37.1C91.5516 37.1 91.0283 37.0233 90.5283 36.87C90.0283 36.71 89.6316 36.5067 89.3383 36.26L89.7883 35.25C90.0683 35.47 90.4149 35.6533 90.8283 35.8C91.2416 35.9467 91.6649 36.02 92.0983 36.02C92.4649 36.02 92.7616 35.98 92.9883 35.9C93.2149 35.82 93.3816 35.7133 93.4883 35.58C93.5949 35.44 93.6483 35.2833 93.6483 35.11C93.6483 34.8967 93.5716 34.7267 93.4183 34.6C93.2649 34.4667 93.0649 34.3633 92.8183 34.29C92.5783 34.21 92.3083 34.1367 92.0083 34.07C91.7149 34.0033 91.4183 33.9267 91.1183 33.84C90.8249 33.7467 90.5549 33.63 90.3083 33.49C90.0683 33.3433 89.8716 33.15 89.7183 32.91C89.5649 32.67 89.4883 32.3633 89.4883 31.99C89.4883 31.61 89.5883 31.2633 89.7883 30.95C89.9949 30.63 90.3049 30.3767 90.7183 30.19C91.1383 29.9967 91.6683 29.9 92.3083 29.9C92.7283 29.9 93.1449 29.9533 93.5583 30.06C93.9716 30.1667 94.3316 30.32 94.6383 30.52L94.2283 31.53C93.9149 31.3433 93.5916 31.2067 93.2583 31.12C92.9249 31.0267 92.6049 30.98 92.2983 30.98C91.9383 30.98 91.6449 31.0233 91.4183 31.11C91.1983 31.1967 91.0349 31.31 90.9283 31.45C90.8283 31.59 90.7783 31.75 90.7783 31.93C90.7783 32.1433 90.8516 32.3167 90.9983 32.45C91.1516 32.5767 91.3483 32.6767 91.5883 32.75C91.8349 32.8233 92.1083 32.8967 92.4083 32.97C92.7083 33.0367 93.0049 33.1133 93.2983 33.2C93.5983 33.2867 93.8683 33.4 94.1083 33.54C94.3549 33.68 94.5516 33.87 94.6983 34.11C94.8516 34.35 94.9283 34.6533 94.9283 35.02C94.9283 35.3933 94.8249 35.74 94.6183 36.06C94.4183 36.3733 94.1083 36.6267 93.6883 36.82C93.2683 37.0067 92.7383 37.1 92.0983 37.1ZM98.4973 37.07C97.9507 37.07 97.464 36.9533 97.0373 36.72C96.6107 36.48 96.274 36.1533 96.0273 35.74C95.7807 35.3267 95.6573 34.8567 95.6573 34.33C95.6573 33.7967 95.7807 33.3267 96.0273 32.92C96.274 32.5067 96.6107 32.1833 97.0373 31.95C97.464 31.7167 97.9507 31.6 98.4973 31.6C99.0507 31.6 99.5407 31.7167 99.9673 31.95C100.401 32.1833 100.737 32.5033 100.977 32.91C101.224 33.3167 101.347 33.79 101.347 34.33C101.347 34.8567 101.224 35.3267 100.977 35.74C100.737 36.1533 100.401 36.48 99.9673 36.72C99.5407 36.9533 99.0507 37.07 98.4973 37.07ZM98.4973 36C98.804 36 99.0773 35.9333 99.3173 35.8C99.5573 35.6667 99.744 35.4733 99.8773 35.22C100.017 34.9667 100.087 34.67 100.087 34.33C100.087 33.9833 100.017 33.6867 99.8773 33.44C99.744 33.1867 99.5573 32.9933 99.3173 32.86C99.0773 32.7267 98.8073 32.66 98.5073 32.66C98.2007 32.66 97.9273 32.7267 97.6873 32.86C97.454 32.9933 97.2673 33.1867 97.1273 33.44C96.9873 33.6867 96.9173 33.9833 96.9173 34.33C96.9173 34.67 96.9873 34.9667 97.1273 35.22C97.2673 35.4733 97.454 35.6667 97.6873 35.8C97.9273 35.9333 98.1973 36 98.4973 36ZM102.713 37V31.36C102.713 30.8 102.876 30.3533 103.203 30.02C103.536 29.68 104.009 29.51 104.623 29.51C104.843 29.51 105.049 29.5333 105.243 29.58C105.443 29.6267 105.609 29.7 105.743 29.8L105.403 30.74C105.309 30.6667 105.203 30.6133 105.083 30.58C104.963 30.54 104.839 30.52 104.713 30.52C104.453 30.52 104.256 30.5933 104.123 30.74C103.989 30.88 103.923 31.0933 103.923 31.38V31.98L103.963 32.54V37H102.713ZM101.833 32.7V31.7H105.393V32.7H101.833ZM108.244 37.07C107.657 37.07 107.204 36.92 106.884 36.62C106.564 36.3133 106.404 35.8633 106.404 35.27V30.48H107.654V35.24C107.654 35.4933 107.717 35.69 107.844 35.83C107.977 35.97 108.161 36.04 108.394 36.04C108.674 36.04 108.907 35.9667 109.094 35.82L109.444 36.71C109.297 36.83 109.117 36.92 108.904 36.98C108.691 37.04 108.471 37.07 108.244 37.07ZM105.524 32.7V31.7H109.084V32.7H105.524ZM111.555 37L109.595 31.66H110.775L112.455 36.37H111.895L113.655 31.66H114.705L116.415 36.37H115.865L117.595 31.66H118.705L116.735 37H115.535L113.975 32.83H114.345L112.755 37H111.555ZM122.688 37V35.92L122.618 35.69V33.8C122.618 33.4333 122.508 33.15 122.288 32.95C122.068 32.7433 121.735 32.64 121.288 32.64C120.988 32.64 120.691 32.6867 120.398 32.78C120.111 32.8733 119.868 33.0033 119.668 33.17L119.178 32.26C119.465 32.04 119.805 31.8767 120.198 31.77C120.598 31.6567 121.011 31.6 121.438 31.6C122.211 31.6 122.808 31.7867 123.228 32.16C123.655 32.5267 123.868 33.0967 123.868 33.87V37H122.688ZM121.008 37.07C120.608 37.07 120.258 37.0033 119.958 36.87C119.658 36.73 119.425 36.54 119.258 36.3C119.098 36.0533 119.018 35.7767 119.018 35.47C119.018 35.17 119.088 34.9 119.228 34.66C119.375 34.42 119.611 34.23 119.938 34.09C120.265 33.95 120.698 33.88 121.238 33.88H122.788V34.71H121.328C120.901 34.71 120.615 34.78 120.468 34.92C120.321 35.0533 120.248 35.22 120.248 35.42C120.248 35.6467 120.338 35.8267 120.518 35.96C120.698 36.0933 120.948 36.16 121.268 36.16C121.575 36.16 121.848 36.09 122.088 35.95C122.335 35.81 122.511 35.6033 122.618 35.33L122.828 36.08C122.708 36.3933 122.491 36.6367 122.178 36.81C121.871 36.9833 121.481 37.07 121.008 37.07ZM125.472 37V31.66H126.662V33.13L126.522 32.7C126.682 32.34 126.932 32.0667 127.272 31.88C127.619 31.6933 128.049 31.6 128.562 31.6V32.79C128.509 32.7767 128.459 32.77 128.412 32.77C128.366 32.7633 128.319 32.76 128.272 32.76C127.799 32.76 127.422 32.9 127.142 33.18C126.862 33.4533 126.722 33.8633 126.722 34.41V37H125.472ZM132.084 37.07C131.491 37.07 130.971 36.9533 130.524 36.72C130.084 36.48 129.741 36.1533 129.494 35.74C129.254 35.3267 129.134 34.8567 129.134 34.33C129.134 33.7967 129.251 33.3267 129.484 32.92C129.724 32.5067 130.051 32.1833 130.464 31.95C130.884 31.7167 131.361 31.6 131.894 31.6C132.414 31.6 132.877 31.7133 133.284 31.94C133.691 32.1667 134.011 32.4867 134.244 32.9C134.477 33.3133 134.594 33.8 134.594 34.36C134.594 34.4133 134.591 34.4733 134.584 34.54C134.584 34.6067 134.581 34.67 134.574 34.73H130.124V33.9H133.914L133.424 34.16C133.431 33.8533 133.367 33.5833 133.234 33.35C133.101 33.1167 132.917 32.9333 132.684 32.8C132.457 32.6667 132.194 32.6 131.894 32.6C131.587 32.6 131.317 32.6667 131.084 32.8C130.857 32.9333 130.677 33.12 130.544 33.36C130.417 33.5933 130.354 33.87 130.354 34.19V34.39C130.354 34.71 130.427 34.9933 130.574 35.24C130.721 35.4867 130.927 35.6767 131.194 35.81C131.461 35.9433 131.767 36.01 132.114 36.01C132.414 36.01 132.684 35.9633 132.924 35.87C133.164 35.7767 133.377 35.63 133.564 35.43L134.234 36.2C133.994 36.48 133.691 36.6967 133.324 36.85C132.964 36.9967 132.551 37.07 132.084 37.07ZM138.678 37V30H141.738C142.498 30 143.165 30.1467 143.738 30.44C144.312 30.7333 144.758 31.14 145.078 31.66C145.398 32.18 145.558 32.7933 145.558 33.5C145.558 34.2 145.398 34.8133 145.078 35.34C144.758 35.86 144.312 36.2667 143.738 36.56C143.165 36.8533 142.498 37 141.738 37H138.678ZM139.978 35.9H141.678C142.205 35.9 142.658 35.8 143.038 35.6C143.425 35.4 143.722 35.12 143.928 34.76C144.142 34.4 144.248 33.98 144.248 33.5C144.248 33.0133 144.142 32.5933 143.928 32.24C143.722 31.88 143.425 31.6 143.038 31.4C142.658 31.2 142.205 31.1 141.678 31.1H139.978V35.9ZM149.33 37.07C148.737 37.07 148.217 36.9533 147.77 36.72C147.33 36.48 146.987 36.1533 146.74 35.74C146.5 35.3267 146.38 34.8567 146.38 34.33C146.38 33.7967 146.497 33.3267 146.73 32.92C146.97 32.5067 147.297 32.1833 147.71 31.95C148.13 31.7167 148.607 31.6 149.14 31.6C149.66 31.6 150.123 31.7133 150.53 31.94C150.937 32.1667 151.257 32.4867 151.49 32.9C151.723 33.3133 151.84 33.8 151.84 34.36C151.84 34.4133 151.837 34.4733 151.83 34.54C151.83 34.6067 151.827 34.67 151.82 34.73H147.37V33.9H151.16L150.67 34.16C150.677 33.8533 150.613 33.5833 150.48 33.35C150.347 33.1167 150.163 32.9333 149.93 32.8C149.703 32.6667 149.44 32.6 149.14 32.6C148.833 32.6 148.563 32.6667 148.33 32.8C148.103 32.9333 147.923 33.12 147.79 33.36C147.663 33.5933 147.6 33.87 147.6 34.19V34.39C147.6 34.71 147.673 34.9933 147.82 35.24C147.967 35.4867 148.173 35.6767 148.44 35.81C148.707 35.9433 149.013 36.01 149.36 36.01C149.66 36.01 149.93 35.9633 150.17 35.87C150.41 35.7767 150.623 35.63 150.81 35.43L151.48 36.2C151.24 36.48 150.937 36.6967 150.57 36.85C150.21 36.9967 149.797 37.07 149.33 37.07ZM154.363 37L152.073 31.66H153.373L155.343 36.37H154.703L156.743 31.66H157.943L155.653 37H154.363ZM161.088 37.07C160.494 37.07 159.974 36.9533 159.528 36.72C159.088 36.48 158.744 36.1533 158.498 35.74C158.258 35.3267 158.138 34.8567 158.138 34.33C158.138 33.7967 158.254 33.3267 158.488 32.92C158.728 32.5067 159.054 32.1833 159.468 31.95C159.888 31.7167 160.364 31.6 160.898 31.6C161.418 31.6 161.881 31.7133 162.288 31.94C162.694 32.1667 163.014 32.4867 163.248 32.9C163.481 33.3133 163.598 33.8 163.598 34.36C163.598 34.4133 163.594 34.4733 163.588 34.54C163.588 34.6067 163.584 34.67 163.578 34.73H159.128V33.9H162.918L162.428 34.16C162.434 33.8533 162.371 33.5833 162.238 33.35C162.104 33.1167 161.921 32.9333 161.688 32.8C161.461 32.6667 161.198 32.6 160.898 32.6C160.591 32.6 160.321 32.6667 160.088 32.8C159.861 32.9333 159.681 33.12 159.548 33.36C159.421 33.5933 159.358 33.87 159.358 34.19V34.39C159.358 34.71 159.431 34.9933 159.578 35.24C159.724 35.4867 159.931 35.6767 160.198 35.81C160.464 35.9433 160.771 36.01 161.118 36.01C161.418 36.01 161.688 35.9633 161.928 35.87C162.168 35.7767 162.381 35.63 162.568 35.43L163.238 36.2C162.998 36.48 162.694 36.6967 162.328 36.85C161.968 36.9967 161.554 37.07 161.088 37.07ZM164.799 37V29.58H166.049V37H164.799ZM170.089 37.07C169.542 37.07 169.056 36.9533 168.629 36.72C168.202 36.48 167.866 36.1533 167.619 35.74C167.372 35.3267 167.249 34.8567 167.249 34.33C167.249 33.7967 167.372 33.3267 167.619 32.92C167.866 32.5067 168.202 32.1833 168.629 31.95C169.056 31.7167 169.542 31.6 170.089 31.6C170.642 31.6 171.132 31.7167 171.559 31.95C171.992 32.1833 172.329 32.5033 172.569 32.91C172.816 33.3167 172.939 33.79 172.939 34.33C172.939 34.8567 172.816 35.3267 172.569 35.74C172.329 36.1533 171.992 36.48 171.559 36.72C171.132 36.9533 170.642 37.07 170.089 37.07ZM170.089 36C170.396 36 170.669 35.9333 170.909 35.8C171.149 35.6667 171.336 35.4733 171.469 35.22C171.609 34.9667 171.679 34.67 171.679 34.33C171.679 33.9833 171.609 33.6867 171.469 33.44C171.336 33.1867 171.149 32.9933 170.909 32.86C170.669 32.7267 170.399 32.66 170.099 32.66C169.792 32.66 169.519 32.7267 169.279 32.86C169.046 32.9933 168.859 33.1867 168.719 33.44C168.579 33.6867 168.509 33.9833 168.509 34.33C168.509 34.67 168.579 34.9667 168.719 35.22C168.859 35.4733 169.046 35.6667 169.279 35.8C169.519 35.9333 169.789 36 170.089 36ZM177.094 37.07C176.661 37.07 176.264 36.97 175.904 36.77C175.551 36.57 175.268 36.27 175.054 35.87C174.848 35.4633 174.744 34.95 174.744 34.33C174.744 33.7033 174.844 33.19 175.044 32.79C175.251 32.39 175.531 32.0933 175.884 31.9C176.238 31.7 176.641 31.6 177.094 31.6C177.621 31.6 178.084 31.7133 178.484 31.94C178.891 32.1667 179.211 32.4833 179.444 32.89C179.684 33.2967 179.804 33.7767 179.804 34.33C179.804 34.8833 179.684 35.3667 179.444 35.78C179.211 36.1867 178.891 36.5033 178.484 36.73C178.084 36.9567 177.621 37.07 177.094 37.07ZM174.134 38.94V31.66H175.324V32.92L175.284 34.34L175.384 35.76V38.94H174.134ZM176.954 36C177.254 36 177.521 35.9333 177.754 35.8C177.994 35.6667 178.184 35.4733 178.324 35.22C178.464 34.9667 178.534 34.67 178.534 34.33C178.534 33.9833 178.464 33.6867 178.324 33.44C178.184 33.1867 177.994 32.9933 177.754 32.86C177.521 32.7267 177.254 32.66 176.954 32.66C176.654 32.66 176.384 32.7267 176.144 32.86C175.904 32.9933 175.714 33.1867 175.574 33.44C175.434 33.6867 175.364 33.9833 175.364 34.33C175.364 34.67 175.434 34.9667 175.574 35.22C175.714 35.4733 175.904 35.6667 176.144 35.8C176.384 35.9333 176.654 36 176.954 36ZM187.73 31.6C188.157 31.6 188.533 31.6833 188.86 31.85C189.193 32.0167 189.453 32.2733 189.64 32.62C189.827 32.96 189.92 33.4 189.92 33.94V37H188.67V34.1C188.67 33.6267 188.567 33.2733 188.36 33.04C188.153 32.8067 187.857 32.69 187.47 32.69C187.197 32.69 186.953 32.75 186.74 32.87C186.533 32.99 186.37 33.1667 186.25 33.4C186.137 33.6333 186.08 33.93 186.08 34.29V37H184.83V34.1C184.83 33.6267 184.727 33.2733 184.52 33.04C184.313 32.8067 184.017 32.69 183.63 32.69C183.357 32.69 183.113 32.75 182.9 32.87C182.693 32.99 182.53 33.1667 182.41 33.4C182.297 33.6333 182.24 33.93 182.24 34.29V37H180.99V31.66H182.18V33.08L181.97 32.66C182.15 32.3133 182.41 32.05 182.75 31.87C183.097 31.69 183.49 31.6 183.93 31.6C184.43 31.6 184.863 31.7233 185.23 31.97C185.603 32.2167 185.85 32.59 185.97 33.09L185.48 32.92C185.653 32.52 185.94 32.2 186.34 31.96C186.74 31.72 187.203 31.6 187.73 31.6ZM194.037 37.07C193.444 37.07 192.924 36.9533 192.477 36.72C192.037 36.48 191.694 36.1533 191.447 35.74C191.207 35.3267 191.087 34.8567 191.087 34.33C191.087 33.7967 191.204 33.3267 191.437 32.92C191.677 32.5067 192.004 32.1833 192.417 31.95C192.837 31.7167 193.314 31.6 193.847 31.6C194.367 31.6 194.83 31.7133 195.237 31.94C195.644 32.1667 195.964 32.4867 196.197 32.9C196.43 33.3133 196.547 33.8 196.547 34.36C196.547 34.4133 196.544 34.4733 196.537 34.54C196.537 34.6067 196.534 34.67 196.527 34.73H192.077V33.9H195.867L195.377 34.16C195.384 33.8533 195.32 33.5833 195.187 33.35C195.054 33.1167 194.87 32.9333 194.637 32.8C194.41 32.6667 194.147 32.6 193.847 32.6C193.54 32.6 193.27 32.6667 193.037 32.8C192.81 32.9333 192.63 33.12 192.497 33.36C192.37 33.5933 192.307 33.87 192.307 34.19V34.39C192.307 34.71 192.38 34.9933 192.527 35.24C192.674 35.4867 192.88 35.6767 193.147 35.81C193.414 35.9433 193.72 36.01 194.067 36.01C194.367 36.01 194.637 35.9633 194.877 35.87C195.117 35.7767 195.33 35.63 195.517 35.43L196.187 36.2C195.947 36.48 195.644 36.6967 195.277 36.85C194.917 36.9967 194.504 37.07 194.037 37.07ZM200.778 31.6C201.204 31.6 201.584 31.6833 201.918 31.85C202.258 32.0167 202.524 32.2733 202.718 32.62C202.911 32.96 203.008 33.4 203.008 33.94V37H201.758V34.1C201.758 33.6267 201.644 33.2733 201.418 33.04C201.198 32.8067 200.888 32.69 200.488 32.69C200.194 32.69 199.934 32.75 199.708 32.87C199.481 32.99 199.304 33.17 199.178 33.41C199.058 33.6433 198.998 33.94 198.998 34.3V37H197.748V31.66H198.938V33.1L198.728 32.66C198.914 32.32 199.184 32.06 199.538 31.88C199.898 31.6933 200.311 31.6 200.778 31.6ZM206.603 37.07C206.017 37.07 205.563 36.92 205.243 36.62C204.923 36.3133 204.763 35.8633 204.763 35.27V30.48H206.013V35.24C206.013 35.4933 206.077 35.69 206.203 35.83C206.337 35.97 206.52 36.04 206.753 36.04C207.033 36.04 207.267 35.9667 207.453 35.82L207.803 36.71C207.657 36.83 207.477 36.92 207.263 36.98C207.05 37.04 206.83 37.07 206.603 37.07ZM203.883 32.7V31.7H207.443V32.7H203.883Z" fill="#D9D9D9"/>
<path d="M77.8587 23.24C76.5467 23.24 75.3387 23.032 74.2347 22.616C73.1467 22.184 72.1947 21.584 71.3787 20.816C70.5627 20.032 69.9307 19.112 69.4827 18.056C69.0347 17 68.8107 15.848 68.8107 14.6C68.8107 13.352 69.0347 12.2 69.4827 11.144C69.9307 10.088 70.5627 9.176 71.3787 8.408C72.2107 7.624 73.1787 7.024 74.2827 6.608C75.3867 6.176 76.5947 5.96 77.9067 5.96C79.3307 5.96 80.6107 6.192 81.7467 6.656C82.8987 7.12 83.8667 7.8 84.6507 8.696L82.6827 10.616C82.0267 9.96 81.3147 9.48 80.5467 9.176C79.7947 8.856 78.9627 8.696 78.0507 8.696C77.1707 8.696 76.3547 8.84 75.6027 9.128C74.8507 9.416 74.2027 9.824 73.6587 10.352C73.1147 10.88 72.6907 11.504 72.3867 12.224C72.0987 12.944 71.9547 13.736 71.9547 14.6C71.9547 15.448 72.0987 16.232 72.3867 16.952C72.6907 17.672 73.1147 18.304 73.6587 18.848C74.2027 19.376 74.8427 19.784 75.5787 20.072C76.3147 20.36 77.1307 20.504 78.0267 20.504C78.8587 20.504 79.6587 20.376 80.4267 20.12C81.2107 19.848 81.9547 19.4 82.6587 18.776L84.4347 21.104C83.5547 21.808 82.5307 22.344 81.3627 22.712C80.2107 23.064 79.0427 23.24 77.8587 23.24ZM81.4827 20.696V14.408H84.4347V21.104L81.4827 20.696ZM90.6617 23V10.184H93.5177V13.712L93.1817 12.68C93.5657 11.816 94.1657 11.16 94.9817 10.712C95.8137 10.264 96.8457 10.04 98.0777 10.04V12.896C97.9497 12.864 97.8297 12.848 97.7177 12.848C97.6057 12.832 97.4937 12.824 97.3817 12.824C96.2457 12.824 95.3417 13.16 94.6697 13.832C93.9977 14.488 93.6617 15.472 93.6617 16.784V23H90.6617ZM108.929 23.168C107.505 23.168 106.257 22.888 105.185 22.328C104.129 21.752 103.305 20.968 102.713 19.976C102.137 18.984 101.849 17.856 101.849 16.592C101.849 15.312 102.129 14.184 102.689 13.208C103.265 12.216 104.049 11.44 105.041 10.88C106.049 10.32 107.193 10.04 108.473 10.04C109.721 10.04 110.833 10.312 111.809 10.856C112.785 11.4 113.553 12.168 114.113 13.16C114.673 14.152 114.953 15.32 114.953 16.664C114.953 16.792 114.945 16.936 114.929 17.096C114.929 17.256 114.921 17.408 114.905 17.552H104.225V15.56H113.321L112.145 16.184C112.161 15.448 112.009 14.8 111.689 14.24C111.369 13.68 110.929 13.24 110.369 12.92C109.825 12.6 109.193 12.44 108.473 12.44C107.737 12.44 107.089 12.6 106.529 12.92C105.985 13.24 105.553 13.688 105.233 14.264C104.929 14.824 104.777 15.488 104.777 16.256V16.736C104.777 17.504 104.953 18.184 105.305 18.776C105.657 19.368 106.153 19.824 106.793 20.144C107.433 20.464 108.169 20.624 109.001 20.624C109.721 20.624 110.369 20.512 110.945 20.288C111.521 20.064 112.033 19.712 112.481 19.232L114.089 21.08C113.513 21.752 112.785 22.272 111.905 22.64C111.041 22.992 110.049 23.168 108.929 23.168ZM126.259 23.168C124.835 23.168 123.587 22.888 122.515 22.328C121.459 21.752 120.635 20.968 120.043 19.976C119.467 18.984 119.179 17.856 119.179 16.592C119.179 15.312 119.459 14.184 120.019 13.208C120.595 12.216 121.379 11.44 122.371 10.88C123.379 10.32 124.523 10.04 125.803 10.04C127.051 10.04 128.163 10.312 129.139 10.856C130.115 11.4 130.883 12.168 131.443 13.16C132.003 14.152 132.283 15.32 132.283 16.664C132.283 16.792 132.275 16.936 132.259 17.096C132.259 17.256 132.251 17.408 132.235 17.552H121.555V15.56H130.651L129.475 16.184C129.491 15.448 129.339 14.8 129.019 14.24C128.699 13.68 128.259 13.24 127.699 12.92C127.155 12.6 126.523 12.44 125.803 12.44C125.067 12.44 124.419 12.6 123.859 12.92C123.315 13.24 122.883 13.688 122.563 14.264C122.259 14.824 122.107 15.488 122.107 16.256V16.736C122.107 17.504 122.283 18.184 122.635 18.776C122.987 19.368 123.483 19.824 124.123 20.144C124.763 20.464 125.499 20.624 126.331 20.624C127.051 20.624 127.699 20.512 128.275 20.288C128.851 20.064 129.363 19.712 129.811 19.232L131.419 21.08C130.843 21.752 130.115 22.272 129.235 22.64C128.371 22.992 127.379 23.168 126.259 23.168ZM144.837 10.04C145.861 10.04 146.773 10.24 147.573 10.64C148.389 11.04 149.029 11.656 149.493 12.488C149.957 13.304 150.189 14.36 150.189 15.656V23H147.189V16.04C147.189 14.904 146.917 14.056 146.373 13.496C145.845 12.936 145.101 12.656 144.141 12.656C143.437 12.656 142.813 12.8 142.269 13.088C141.725 13.376 141.301 13.808 140.997 14.384C140.709 14.944 140.565 15.656 140.565 16.52V23H137.565V10.184H140.421V13.64L139.917 12.584C140.365 11.768 141.013 11.144 141.861 10.712C142.725 10.264 143.717 10.04 144.837 10.04ZM165.715 23V6.2H173.059C174.883 6.2 176.483 6.552 177.859 7.256C179.235 7.96 180.307 8.936 181.075 10.184C181.843 11.432 182.227 12.904 182.227 14.6C182.227 16.28 181.843 17.752 181.075 19.016C180.307 20.264 179.235 21.24 177.859 21.944C176.483 22.648 174.883 23 173.059 23H165.715ZM168.835 20.36H172.915C174.179 20.36 175.267 20.12 176.179 19.64C177.107 19.16 177.819 18.488 178.315 17.624C178.827 16.76 179.083 15.752 179.083 14.6C179.083 13.432 178.827 12.424 178.315 11.576C177.819 10.712 177.107 10.04 176.179 9.56C175.267 9.08 174.179 8.84 172.915 8.84H168.835V20.36ZM193.68 23.168C192.256 23.168 191.008 22.888 189.936 22.328C188.88 21.752 188.056 20.968 187.464 19.976C186.888 18.984 186.6 17.856 186.6 16.592C186.6 15.312 186.88 14.184 187.44 13.208C188.016 12.216 188.8 11.44 189.792 10.88C190.8 10.32 191.944 10.04 193.224 10.04C194.472 10.04 195.584 10.312 196.56 10.856C197.536 11.4 198.304 12.168 198.864 13.16C199.424 14.152 199.704 15.32 199.704 16.664C199.704 16.792 199.696 16.936 199.68 17.096C199.68 17.256 199.672 17.408 199.656 17.552H188.976V15.56H198.072L196.896 16.184C196.912 15.448 196.76 14.8 196.44 14.24C196.12 13.68 195.68 13.24 195.12 12.92C194.576 12.6 193.944 12.44 193.224 12.44C192.488 12.44 191.84 12.6 191.28 12.92C190.736 13.24 190.304 13.688 189.984 14.264C189.68 14.824 189.528 15.488 189.528 16.256V16.736C189.528 17.504 189.704 18.184 190.056 18.776C190.408 19.368 190.904 19.824 191.544 20.144C192.184 20.464 192.92 20.624 193.752 20.624C194.472 20.624 195.12 20.512 195.696 20.288C196.272 20.064 196.784 19.712 197.232 19.232L198.84 21.08C198.264 21.752 197.536 22.272 196.656 22.64C195.792 22.992 194.8 23.168 193.68 23.168ZM208.159 23L202.663 10.184H205.783L210.511 21.488H208.975L213.871 10.184H216.751L211.255 23H208.159ZM224.822 23.168C223.75 23.168 222.718 23.032 221.726 22.76C220.75 22.472 219.974 22.128 219.398 21.728L220.55 19.448C221.126 19.816 221.814 20.12 222.614 20.36C223.414 20.6 224.214 20.72 225.014 20.72C225.958 20.72 226.638 20.592 227.054 20.336C227.486 20.08 227.702 19.736 227.702 19.304C227.702 18.952 227.558 18.688 227.27 18.512C226.982 18.32 226.606 18.176 226.142 18.08C225.678 17.984 225.158 17.896 224.582 17.816C224.022 17.736 223.454 17.632 222.878 17.504C222.318 17.36 221.806 17.16 221.342 16.904C220.878 16.632 220.502 16.272 220.214 15.824C219.926 15.376 219.782 14.784 219.782 14.048C219.782 13.232 220.014 12.528 220.478 11.936C220.942 11.328 221.59 10.864 222.422 10.544C223.27 10.208 224.27 10.04 225.422 10.04C226.286 10.04 227.158 10.136 228.038 10.328C228.918 10.52 229.646 10.792 230.222 11.144L229.07 13.424C228.462 13.056 227.846 12.808 227.222 12.68C226.614 12.536 226.006 12.464 225.398 12.464C224.486 12.464 223.806 12.6 223.358 12.872C222.926 13.144 222.71 13.488 222.71 13.904C222.71 14.288 222.854 14.576 223.142 14.768C223.43 14.96 223.806 15.112 224.27 15.224C224.734 15.336 225.246 15.432 225.806 15.512C226.382 15.576 226.95 15.68 227.51 15.824C228.07 15.968 228.582 16.168 229.046 16.424C229.526 16.664 229.91 17.008 230.198 17.456C230.486 17.904 230.63 18.488 230.63 19.208C230.63 20.008 230.39 20.704 229.91 21.296C229.446 21.888 228.782 22.352 227.918 22.688C227.054 23.008 226.022 23.168 224.822 23.168Z" fill="white"/>
<g clip-path="url(#clip0_227_222)">
<path d="M0.5 21.0499C0.5 21.0499 7.43867 16.057 19.0462 20.1988C26.7253 22.9406 31.4783 23.1225 34.3689 22.3916C34.3689 22.3916 29.5868 33.1473 16.6051 26.0591C11.9071 23.4928 7.74583 20.7218 0.5 21.0499Z" fill="#5AAD3B"/>
<path d="M27.1553 32.8549C30.9351 34.3882 35.8465 35.1679 41.1232 32.4261C41.2655 32.3514 41.4045 32.2832 41.5435 32.2117H41.5468C41.5468 32.2117 51.1367 26.8452 54.5705 25.9032C54.5705 25.9032 49.4231 23.103 42.6849 27.6606C37.6668 31.0553 32.9203 34.2128 27.1521 32.8549H27.1553Z" fill="#5AAD3B"/>
<path d="M23.8897 31.2339C28.523 33.1895 32.749 31.3314 37.5148 27.1603C38.1809 26.5756 38.8631 26.1111 39.5421 25.7375C39.1315 25.5815 36.0178 24.542 33.0981 27.222C27.9895 31.9064 24.4879 31.4613 21.8527 29.9475C22.4283 30.3341 23.1137 30.7791 23.8929 31.2339H23.8897Z" fill="#297729"/>
<path d="M23.8865 31.2339C24.8435 31.7926 25.9396 32.3611 27.1553 32.8549C31.391 33.8521 35.0769 32.4131 38.7273 30.2301C41.0068 28.7228 46.2609 24.3535 46.2609 24.3535C46.2609 24.3535 41.5856 23.5999 37.5148 27.1602C32.7457 31.3313 28.5198 33.1894 23.8865 31.2306V31.2339Z" fill="#409936"/>
<path d="M44.0041 35.4373C47.1307 32.9782 49.0157 31.2825 51.9354 29.7849C51.9354 29.7849 49.4975 28.0795 41.1232 32.4292C32.0215 37.1558 24.0029 31.4189 21.0088 29.3789C21.0088 29.3789 15.357 25.3735 13.3491 24.269C9.79251 22.3686 6.05158 20.7996 0.5 21.0497C0.5 21.0497 8.053 23.4114 17.3681 33.2933C27.705 44.257 38.9957 39.3778 44.0041 35.4373Z" fill="#7EC545"/>
<path d="M64.4968 18.9513C64.4968 18.9513 57.5581 23.9442 45.9506 19.8024C38.2715 17.0607 33.5185 16.8787 30.6279 17.6096C30.6279 17.6096 35.41 6.85388 48.3917 13.9421C53.0897 16.5084 57.2509 19.2794 64.4968 18.9513Z" fill="#5AAD3B"/>
<path d="M37.8414 7.14312C34.0617 5.60983 29.1503 4.83019 23.8736 7.57192C23.7313 7.64663 23.5923 7.71485 23.4532 7.78632H23.45C23.45 7.78632 13.86 13.1528 10.4263 14.0949C10.4263 14.0949 15.5737 16.8951 22.3119 12.3375C27.33 8.94278 32.0765 5.78525 37.8447 7.14312H37.8414Z" fill="#5AAD3B"/>
<path d="M41.1071 8.76389C36.4737 6.8083 32.2478 8.66644 27.4819 12.8375C26.8159 13.4222 26.1336 13.8868 25.4547 14.2603C25.8653 14.4163 28.979 15.4558 31.8986 12.7758C37.0072 8.09145 40.5089 8.5365 43.1441 10.0503C42.5685 9.66372 41.8831 9.21868 41.1038 8.76389H41.1071Z" fill="#297729"/>
<path d="M41.1103 8.76722C40.1532 8.20848 39.0571 7.63999 37.8414 7.14622C33.6058 6.14893 29.9198 7.58802 26.2694 9.771C23.99 11.2783 18.7358 15.6475 18.7358 15.6475C18.7358 15.6475 23.4112 16.4012 27.4819 12.8408C32.251 8.66976 36.477 6.81162 41.1103 8.77047V8.76722Z" fill="#409936"/>
<path d="M20.9927 4.56369C17.8661 7.0228 15.9811 8.71852 13.0614 10.2161C13.0614 10.2161 15.4993 11.9215 23.8736 7.5718C32.9753 2.84524 40.9939 8.58208 43.9879 10.6221C43.9879 10.6221 49.6398 14.6275 51.6476 15.732C55.2075 17.6324 58.9484 19.2014 64.5 18.9513C64.5 18.9513 56.947 16.5896 47.6319 6.7077C37.2918 -4.25598 26.0011 0.620016 20.9927 4.56369Z" fill="#7EC545"/>
</g>
<defs>
<clipPath id="clip0_227_222">
<rect width="64" height="40" fill="white" transform="translate(0.5)"/>
</clipPath>
</defs>
</svg>
