<svg width="158" height="99" viewBox="0 0 158 99" fill="none" xmlns="http://www.w3.org/2000/svg">
<g clip-path="url(#clip0_195_760)">
<path d="M0.0488281 51.6917C0.0488281 51.6917 17.1681 39.4306 45.8066 49.6016C64.7526 56.3344 76.4792 56.7812 83.6109 54.9863C83.6109 54.9863 71.8125 81.3991 39.7837 63.9926C28.1927 57.6906 17.9259 50.8859 0.0488281 51.6917Z" fill="#5AAD3B"/>
<path d="M65.8136 80.6811C75.1391 84.4464 87.2566 86.3609 100.275 79.6281C100.626 79.4446 100.97 79.2771 101.313 79.1016H101.321C101.321 79.1016 124.981 65.9231 133.453 63.6097C133.453 63.6097 120.753 56.7333 104.129 67.9254C91.7478 76.2617 80.0371 84.0156 65.8056 80.6811H65.8136Z" fill="#5AAD3B"/>
<path d="M57.7565 76.7006C69.188 81.503 79.6143 76.9399 91.3728 66.6971C93.0162 65.2612 94.6994 64.1204 96.3746 63.2031C95.3615 62.8201 87.6794 60.2674 80.4759 66.8487C67.8717 78.3519 59.2323 77.259 52.7309 73.5416C54.1508 74.4909 55.842 75.5838 57.7645 76.7006H57.7565Z" fill="#297729"/>
<path d="M57.7486 76.7005C60.1098 78.0726 62.8141 79.4686 65.8136 80.6812C76.2639 83.1302 85.358 79.5963 94.3643 74.2355C99.9883 70.5341 112.951 59.8046 112.951 59.8046C112.951 59.8046 101.416 57.9539 91.3728 66.697C79.6063 76.9398 69.18 81.5028 57.7486 76.6925V76.7005Z" fill="#409936"/>
<path d="M107.383 87.0232C115.097 80.9844 119.748 76.8202 126.952 73.1427C126.952 73.1427 120.937 68.9546 100.275 79.6362C77.8194 91.2432 58.0357 77.1553 50.6488 72.1456C50.6488 72.1456 36.7045 62.3096 31.7506 59.5973C22.9756 54.9306 13.7458 51.0775 0.0488281 51.6918C0.0488281 51.6918 18.6838 57.4913 41.6663 81.7582C67.1697 108.682 95.0264 96.6996 107.383 87.0232Z" fill="#7EC545"/>
<path d="M157.943 46.5385C157.943 46.5385 140.824 58.7996 112.186 48.6285C93.2395 41.8957 81.5129 41.449 74.3812 43.2439C74.3812 43.2439 86.1796 16.831 118.208 34.2375C129.799 40.5396 140.066 47.3442 157.943 46.5385Z" fill="#5AAD3B"/>
<path d="M92.1785 17.5409C82.8531 13.7756 70.7356 11.8611 57.7167 18.5939C57.3657 18.7774 57.0226 18.9449 56.6796 19.1204H56.6716C56.6716 19.1204 33.011 32.2989 24.5391 34.6123C24.5391 34.6123 37.239 41.4887 53.8636 30.2966C66.2444 21.9603 77.955 14.2064 92.1865 17.5409H92.1785Z" fill="#5AAD3B"/>
<path d="M100.236 21.5217C88.8041 16.7193 78.3778 21.2823 66.6193 31.5252C64.976 32.9611 63.2928 34.1019 61.6175 35.0192C62.6307 35.4022 70.3128 37.9549 77.5163 31.3736C90.1204 19.8704 98.7598 20.9633 105.261 24.6807C103.841 23.7314 102.15 22.6385 100.228 21.5217H100.236Z" fill="#297729"/>
<path d="M100.244 21.5297C97.8823 20.1576 95.178 18.7616 92.1785 17.549C81.7283 15.1 72.6342 18.6339 63.6278 23.9947C58.0038 27.6961 45.0407 38.4256 45.0407 38.4256C45.0407 38.4256 56.5759 40.2763 66.6193 31.5332C78.3858 21.2904 88.8121 16.7274 100.244 21.5377V21.5297Z" fill="#409936"/>
<path d="M50.6089 11.207C42.8949 17.2458 38.2441 21.41 31.0406 25.0875C31.0406 25.0875 37.0555 29.2756 57.7167 18.594C80.1727 6.98701 99.9564 21.0749 107.343 26.0846C107.343 26.0846 121.288 35.9206 126.242 38.6329C135.025 43.2996 144.254 47.1527 157.951 46.5384C157.951 46.5384 139.316 40.7389 116.334 16.472C90.8224 -10.4513 62.9657 1.52257 50.6089 11.207Z" fill="#7EC545"/>
</g>
<defs>
<clipPath id="clip0_195_760">
<rect width="157.902" height="98.2275" fill="white" transform="translate(0.0488281)"/>
</clipPath>
</defs>
</svg>
