<svg width="341" height="341" viewBox="0 0 341 341" fill="none" xmlns="http://www.w3.org/2000/svg">
<g filter="url(#filter0_d_232_31)">
<g clip-path="url(#clip0_232_31)">
<rect x="4" width="333" height="333" rx="15" fill="white"/>
<path d="M23 202.352C23 202.352 151.118 107.61 246.255 120.142C341.392 132.674 486 247.926 486 247.926L151.007 316L23 202.352Z" fill="#0C9166" fill-opacity="0.5"/>
<path d="M12.9609 126.18C102.873 53.5218 178.913 197.829 303.248 116.088C411.818 44.712 347.365 365.129 329.276 447.527C326.824 458.694 316.998 466.565 305.566 466.748L31.3443 471.142C20.4082 471.318 10.6643 464.404 7.58994 453.908C-10.3873 392.529 -63.1624 187.695 12.9609 126.18Z" fill="#00FF11" fill-opacity="0.4"/>
<path d="M13.9609 132.18C109.5 50.5 185.165 213.92 309.5 132.18C418.054 60.8141 349.633 373.43 330.516 453.935C327.911 464.905 318.179 472.562 306.907 472.743L31.7889 477.151C21.1212 477.322 11.5607 470.753 8.30109 460.594C-10.7557 401.202 -66.9935 201.39 13.9609 132.18Z" fill="#0C9166"/>
</g>
</g>
<defs>
<filter id="filter0_d_232_31" x="0" y="0" width="341" height="341" filterUnits="userSpaceOnUse" color-interpolation-filters="sRGB">
<feFlood flood-opacity="0" result="BackgroundImageFix"/>
<feColorMatrix in="SourceAlpha" type="matrix" values="0 0 0 0 0 0 0 0 0 0 0 0 0 0 0 0 0 0 127 0" result="hardAlpha"/>
<feOffset dy="4"/>
<feGaussianBlur stdDeviation="2"/>
<feComposite in2="hardAlpha" operator="out"/>
<feColorMatrix type="matrix" values="0 0 0 0 0 0 0 0 0 0 0 0 0 0 0 0 0 0 0.25 0"/>
<feBlend mode="normal" in2="BackgroundImageFix" result="effect1_dropShadow_232_31"/>
<feBlend mode="normal" in="SourceGraphic" in2="effect1_dropShadow_232_31" result="shape"/>
</filter>
<clipPath id="clip0_232_31">
<rect x="4" width="333" height="333" rx="15" fill="white"/>
</clipPath>
</defs>
</svg>
