<svg width="74" height="74" viewBox="0 0 74 74" fill="none" xmlns="http://www.w3.org/2000/svg">
<circle cx="37" cy="37" r="37" fill="#00FF11" fill-opacity="0.4"/>
<circle cx="37" cy="37" r="34" fill="#0C9166"/>
<path opacity="0.4" fill-rule="evenodd" clip-rule="evenodd" d="M35.2854 44.9423H48.3123V42.8568H35.2854V44.9423Z" fill="white"/>
<path opacity="0.4" fill-rule="evenodd" clip-rule="evenodd" d="M35.2854 39.0334H48.3123V36.9479H35.2854V39.0334Z" fill="white"/>
<path opacity="0.4" fill-rule="evenodd" clip-rule="evenodd" d="M35.2854 33.1245H48.3123V31.0389H35.2854V33.1245Z" fill="white"/>
<path fill-rule="evenodd" clip-rule="evenodd" d="M49.5702 49.8086C49.5702 49.6725 49.458 49.5623 49.3196 49.5623H41.2949C41.1565 49.5623 41.0444 49.6725 41.0444 49.8086V51.7724C41.0444 51.9084 41.1565 52.0187 41.2949 52.0187H49.3196C49.458 52.0187 49.5702 51.9084 49.5702 51.7724V49.8086ZM49.0691 50.0549V51.5261H41.5454V50.0549H49.0691Z" fill="white"/>
<path fill-rule="evenodd" clip-rule="evenodd" d="M49.5702 30.1004C49.5702 29.9644 49.458 29.8541 49.3196 29.8541H34.2953C34.1569 29.8541 34.0448 29.9644 34.0448 30.1004V34.0455C34.0448 34.1816 34.1569 34.2919 34.2953 34.2919H49.3196C49.458 34.2919 49.5702 34.1816 49.5702 34.0455V30.1004ZM49.0691 30.3468V33.7992H34.5458V30.3468H49.0691Z" fill="white"/>
<path fill-rule="evenodd" clip-rule="evenodd" d="M49.5702 36.0095C49.5702 35.8735 49.458 35.7632 49.3196 35.7632H34.2953C34.1569 35.7632 34.0448 35.8735 34.0448 36.0095V39.9546C34.0448 40.0906 34.1569 40.2009 34.2953 40.2009H49.3196C49.458 40.2009 49.5702 40.0906 49.5702 39.9546V36.0095ZM49.0691 36.2558V39.7083H34.5458V36.2558H49.0691Z" fill="white"/>
<path fill-rule="evenodd" clip-rule="evenodd" d="M49.5702 41.9356C49.5702 41.7996 49.458 41.6893 49.3196 41.6893H34.2953C34.1569 41.6893 34.0448 41.7996 34.0448 41.9356V45.8807C34.0448 46.0168 34.1569 46.1271 34.2953 46.1271H49.3196C49.458 46.1271 49.5702 46.0168 49.5702 45.8807V41.9356ZM49.0691 42.182V45.6344H34.5458V42.182H49.0691Z" fill="white"/>
<path fill-rule="evenodd" clip-rule="evenodd" d="M53.6444 20.2463C53.6444 20.1103 53.5319 20 53.3932 20H21.2511C21.1124 20 21 20.1103 21 20.2463V53.7537C21 53.8897 21.1124 54 21.2511 54H53.3932C53.5319 54 53.6444 53.8897 53.6444 53.7537V20.2463ZM53.1421 20.4926V53.5074H21.5023V20.4926H53.1421Z" fill="white" stroke="white" stroke-miterlimit="10" stroke-linecap="round" stroke-linejoin="round"/>
<path fill-rule="evenodd" clip-rule="evenodd" d="M53.5826 47.8447C53.5826 47.7087 53.4705 47.5984 53.3321 47.5984H21.2507C21.1124 47.5984 21.0002 47.7087 21.0002 47.8447C21.0002 47.9807 21.1124 48.091 21.2507 48.091H53.3321C53.4705 48.091 53.5826 47.9807 53.5826 47.8447Z" fill="white" stroke="white" stroke-miterlimit="10" stroke-linecap="round" stroke-linejoin="round"/>
<path fill-rule="evenodd" clip-rule="evenodd" d="M44.5379 25.182C44.5379 25.0459 44.428 24.9357 44.2924 24.9357H21.3203C21.1847 24.9357 21.0748 25.0459 21.0748 25.182C21.0748 25.318 21.1847 25.4283 21.3203 25.4283H44.2924C44.428 25.4283 44.5379 25.318 44.5379 25.182Z" fill="white" stroke="white" stroke-miterlimit="10" stroke-linecap="round" stroke-linejoin="round"/>
<path fill-rule="evenodd" clip-rule="evenodd" d="M47.395 22.6709C48.7653 22.609 49.9019 23.6834 49.9019 25.0014C49.9019 26.2807 48.8494 27.3316 47.5237 27.3316H47.4515C46.1719 27.3316 45.1454 26.3259 45.1454 25.0722C45.1454 23.7954 46.1491 22.7116 47.3906 22.6711L47.395 22.671L47.395 22.6709ZM47.3657 22.0032C49.1229 21.9249 50.5841 23.3021 50.5841 25.0014C50.5841 26.6459 49.2301 28 47.5237 28H47.4515C45.7951 28 44.4633 26.695 44.4633 25.0722C44.4633 23.4731 45.7206 22.0581 47.3657 22.0032Z" fill="white"/>
<path fill-rule="evenodd" clip-rule="evenodd" d="M47.5491 23.7881C47.7107 23.7881 47.8418 23.9165 47.8418 24.075C47.8418 24.2334 47.7107 24.3618 47.5491 24.3618C47.3875 24.3618 47.2565 24.2334 47.2565 24.075C47.2565 23.9165 47.3875 23.7881 47.5491 23.7881ZM48.4417 24.075C48.4417 23.5917 48.0421 23.2 47.5491 23.2C47.0561 23.2 46.6565 23.5917 46.6565 24.075C46.6565 24.5582 47.0561 24.95 47.5491 24.95C48.0421 24.95 48.4417 24.5582 48.4417 24.075Z" fill="white"/>
<path fill-rule="evenodd" clip-rule="evenodd" d="M48.4245 26.1405C48.5338 26.1405 48.6423 26.1764 48.7573 26.2448L49.1556 25.7119C48.9667 25.5996 48.7205 25.5 48.4245 25.5H46.6766C46.3659 25.5 46.0678 25.5941 45.8402 25.7971L46.3479 26.25C46.4242 26.1819 46.5314 26.1405 46.6766 26.1405H48.4245Z" fill="white"/>
<path fill-rule="evenodd" clip-rule="evenodd" d="M53.5648 25.182C53.5648 25.0459 53.4884 24.9357 53.3943 24.9357H50.6749C50.5807 24.9357 50.5044 25.0459 50.5044 25.182C50.5044 25.318 50.5807 25.4283 50.6749 25.4283H53.3943C53.4884 25.4283 53.5648 25.318 53.5648 25.182Z" fill="white" stroke="white" stroke-miterlimit="10" stroke-linecap="round" stroke-linejoin="round"/>
<path opacity="0.4" fill-rule="evenodd" clip-rule="evenodd" d="M25.2628 33.3133H31.2726V30.8501H25.2628V33.3133Z" fill="white"/>
<path opacity="0.4" fill-rule="evenodd" clip-rule="evenodd" d="M25.2628 39.2222H31.2726V36.759H25.2628V39.2222Z" fill="white"/>
<path opacity="0.4" fill-rule="evenodd" clip-rule="evenodd" d="M25.2628 45.1312H31.2726V42.668H25.2628V45.1312Z" fill="white"/>
<path opacity="0.4" fill-rule="evenodd" clip-rule="evenodd" d="M25.2629 52.0307H38.2899V49.5675H25.2629V52.0307Z" fill="white"/>
</svg>
