<svg width="74" height="74" viewBox="0 0 74 74" fill="none" xmlns="http://www.w3.org/2000/svg">
<circle cx="37" cy="37" r="37" fill="#00FF11" fill-opacity="0.4"/>
<circle cx="37" cy="37" r="34" fill="#0C9166"/>
<path opacity="0.45" fill-rule="evenodd" clip-rule="evenodd" d="M21.5861 42.1565H44.7303L49.0882 49.1988H17.2537L21.5861 42.1565ZM22.5291 43.7837L20.1987 47.5716H46.1342L43.7902 43.7837H22.5291Z" fill="white"/>
<path opacity="0.45" fill-rule="evenodd" clip-rule="evenodd" d="M46.1387 42.1565H51.4141L55.7465 49.1988H50.4711L46.1387 42.1565ZM49.0837 43.7837L51.4141 47.5716H52.8014L50.4711 43.7837H49.0837Z" fill="white"/>
<path fill-rule="evenodd" clip-rule="evenodd" d="M14 50.5665C14 50.4167 14.1243 50.2953 14.2777 50.2953H58.7223C58.8757 50.2953 59 50.4167 59 50.5665V52.7287C59 52.8785 58.8757 52.9999 58.7223 52.9999H14.2777C14.1243 52.9999 14 52.8785 14 52.7287V50.5665ZM14.5555 50.8377V52.4575H58.4445V50.8377H14.5555Z" fill="white" stroke="white" stroke-miterlimit="10" stroke-linecap="round" stroke-linejoin="round"/>
<path fill-rule="evenodd" clip-rule="evenodd" d="M19.5807 40.6762C19.6297 40.5901 19.7226 40.5366 19.8236 40.5366H53.1569C53.2579 40.5366 53.3508 40.5901 53.3998 40.6762L58.9456 50.435C59.02 50.5659 58.9716 50.731 58.8375 50.8037C58.7033 50.8764 58.5343 50.8291 58.4599 50.6981L52.9934 41.079H19.9871L14.5206 50.6981C14.4462 50.8291 14.2772 50.8764 14.143 50.8037C14.0089 50.731 13.9605 50.5659 14.0349 50.435L19.5807 40.6762Z" fill="white" stroke="white" stroke-miterlimit="10" stroke-linecap="round" stroke-linejoin="round"/>
<path fill-rule="evenodd" clip-rule="evenodd" d="M19.5459 21.2712C19.5459 21.1214 19.6702 21 19.8236 21H53.157C53.3104 21 53.4347 21.1214 53.4347 21.2712V40.8078C53.4347 40.9576 53.3104 41.079 53.157 41.079C53.0036 41.079 52.8792 40.9576 52.8792 40.8078V21.5424H20.1013V40.8078C20.1013 40.9576 19.977 41.079 19.8236 41.079C19.6702 41.079 19.5459 40.9576 19.5459 40.8078V21.2712Z" fill="white" stroke="white" stroke-miterlimit="10" stroke-linecap="round" stroke-linejoin="round"/>
<path fill-rule="evenodd" clip-rule="evenodd" d="M24.77 26.2216C24.77 25.9778 24.9218 25.7802 25.1091 25.7802H33.2428C33.43 25.7802 33.5819 25.9778 33.5819 26.2216V36.8111C33.5819 37.0549 33.43 37.2525 33.2428 37.2525H25.1091C24.9218 37.2525 24.77 37.0549 24.77 36.8111V26.2216ZM25.4481 26.663V36.3697H32.9037V26.663H25.4481Z" fill="white" stroke="white" stroke-width="0.5" stroke-miterlimit="10" stroke-linecap="round" stroke-linejoin="round"/>
<path fill-rule="evenodd" clip-rule="evenodd" d="M37.0635 26.821C37.0635 26.6712 37.1878 26.5498 37.3412 26.5498H48.4523C48.6057 26.5498 48.7301 26.6712 48.7301 26.821C48.7301 26.9708 48.6057 27.0922 48.4523 27.0922H37.3412C37.1878 27.0922 37.0635 26.9708 37.0635 26.821Z" fill="white" stroke="white" stroke-width="0.5" stroke-miterlimit="10" stroke-linecap="round" stroke-linejoin="round"/>
<path fill-rule="evenodd" clip-rule="evenodd" d="M37.0635 30.0738C37.0635 29.924 37.1878 29.8026 37.3412 29.8026H48.4523C48.6057 29.8026 48.7301 29.924 48.7301 30.0738C48.7301 30.2236 48.6057 30.345 48.4523 30.345H37.3412C37.1878 30.345 37.0635 30.2236 37.0635 30.0738Z" fill="white" stroke="white" stroke-width="0.5" stroke-miterlimit="10" stroke-linecap="round" stroke-linejoin="round"/>
<path fill-rule="evenodd" clip-rule="evenodd" d="M37.0635 33.3269C37.0635 33.1771 37.1878 33.0557 37.3412 33.0557H48.4523C48.6057 33.0557 48.7301 33.1771 48.7301 33.3269C48.7301 33.4766 48.6057 33.5981 48.4523 33.5981H37.3412C37.1878 33.5981 37.0635 33.4766 37.0635 33.3269Z" fill="white" stroke="white" stroke-width="0.5" stroke-miterlimit="10" stroke-linecap="round" stroke-linejoin="round"/>
<path fill-rule="evenodd" clip-rule="evenodd" d="M37.0674 36.5677C37.0674 36.4179 37.1917 36.2965 37.3451 36.2965H48.4563C48.6096 36.2965 48.734 36.4179 48.734 36.5677C48.734 36.7175 48.6096 36.8389 48.4563 36.8389H37.3451C37.1917 36.8389 37.0674 36.7175 37.0674 36.5677Z" fill="white" stroke="white" stroke-width="0.5" stroke-miterlimit="10" stroke-linecap="round" stroke-linejoin="round"/>
<path opacity="0.4" fill-rule="evenodd" clip-rule="evenodd" d="M53.1638 22.9121H19.8746V21H53.1638V22.9121Z" fill="white" stroke="white" stroke-miterlimit="10" stroke-linejoin="round"/>
</svg>
