<svg width="74" height="74" viewBox="0 0 74 74" fill="none" xmlns="http://www.w3.org/2000/svg">
<circle cx="37" cy="37" r="37" fill="#00FF11" fill-opacity="0.4"/>
<circle cx="37" cy="37" r="34" fill="#0C9166"/>
<path opacity="0.1" fill-rule="evenodd" clip-rule="evenodd" d="M41.2812 36.3274C41.2812 33.7331 39.1202 31.623 36.427 31.623V29.9594C40.0721 29.9594 42.9978 32.8181 42.9978 36.3274C42.9978 39.8386 40.05 42.6955 36.427 42.6955V41.0319C39.102 41.0319 41.2812 38.9198 41.2812 36.3274Z" fill="white" stroke="white" stroke-miterlimit="10"/>
<path fill-rule="evenodd" clip-rule="evenodd" d="M25.7756 25.6009C22.316 24.7018 18.7789 26.706 17.8704 30.0403L17.8702 30.0413C16.9425 33.3942 19.0104 36.8223 22.4508 37.7027C22.6036 37.7418 22.6947 37.8935 22.6544 38.0415C22.6141 38.1896 22.4575 38.2779 22.3047 38.2388C18.5593 37.2804 16.3076 33.5487 17.3174 29.8982C18.3066 26.2684 22.1572 24.0865 25.9238 25.0653C26.0764 25.105 26.1669 25.257 26.126 25.405C26.0851 25.5529 25.9282 25.6406 25.7756 25.6009Z" fill="white" stroke="white" stroke-miterlimit="10" stroke-linecap="round" stroke-linejoin="round"/>
<path fill-rule="evenodd" clip-rule="evenodd" d="M27.0008 42.3524C27.1126 42.4607 27.1126 42.6363 27.0008 42.7446C25.8005 43.9079 25.8005 45.806 27.0008 46.9693C28.2012 48.1326 30.1597 48.1326 31.36 46.9693C31.4717 46.861 31.6529 46.861 31.7646 46.9693C31.8763 47.0776 31.8763 47.2531 31.7646 47.3614C30.3408 48.7413 28.02 48.7413 26.5962 47.3614C25.1725 45.9815 25.1725 43.7323 26.5962 42.3524C26.708 42.2442 26.8891 42.2442 27.0008 42.3524Z" fill="white" stroke="white" stroke-miterlimit="10" stroke-linecap="round" stroke-linejoin="round"/>
<path fill-rule="evenodd" clip-rule="evenodd" d="M30.1087 25.8617C28.9084 24.6984 26.9498 24.6984 25.7495 25.8617C24.5492 27.025 24.5492 28.9231 25.7495 30.0864C25.8612 30.1947 25.8612 30.3703 25.7495 30.4786C25.6378 30.5868 25.4566 30.5868 25.3449 30.4786C23.9211 29.0987 23.9211 26.8495 25.3449 25.4696C26.7687 24.0897 29.0895 24.0897 30.5133 25.4696C30.625 25.5779 30.625 25.7534 30.5133 25.8617C30.4015 25.97 30.2204 25.97 30.1087 25.8617Z" fill="white" stroke="white" stroke-miterlimit="10" stroke-linecap="round" stroke-linejoin="round"/>
<path fill-rule="evenodd" clip-rule="evenodd" d="M23.8715 47.2017C24.0292 47.2125 24.148 47.345 24.1369 47.4977C23.9821 49.6351 24.9492 51.7887 26.901 53.0997L26.9014 53.1C29.8201 55.067 33.8599 54.3733 35.8889 51.5268C35.9787 51.4008 36.1568 51.3692 36.2868 51.4562C36.4168 51.5432 36.4494 51.7159 36.3596 51.8419C34.1496 54.9425 29.7519 55.6965 26.5747 53.5553C24.4493 52.1275 23.3979 49.7818 23.5661 47.4589C23.5772 47.3062 23.7139 47.191 23.8715 47.2017Z" fill="white" stroke="white" stroke-miterlimit="10" stroke-linecap="round" stroke-linejoin="round"/>
<path fill-rule="evenodd" clip-rule="evenodd" d="M19.4716 36.0728C19.5833 36.1811 19.5833 36.3566 19.4716 36.4649C16.939 38.9194 16.939 42.8716 19.4716 45.326C21.3664 47.1623 24.1302 47.6306 26.469 46.7127C26.6155 46.6553 26.7823 46.7237 26.8416 46.8656C26.9009 47.0076 26.8302 47.1692 26.6838 47.2267C24.1377 48.226 21.1286 47.7161 19.067 45.7181C16.311 43.0471 16.311 38.7438 19.067 36.0728C19.1787 35.9645 19.3599 35.9645 19.4716 36.0728Z" fill="white" stroke="white" stroke-miterlimit="10" stroke-linecap="round" stroke-linejoin="round"/>
<path fill-rule="evenodd" clip-rule="evenodd" d="M24.8776 18.9321C27.8544 17.0217 31.8548 17.8086 33.8263 20.6933C33.9136 20.821 34.0911 20.8559 34.2228 20.7714C34.3545 20.6868 34.3906 20.5148 34.3033 20.3871C32.1572 17.2467 27.8012 16.3902 24.561 18.4701L24.561 18.4701L24.5598 18.4709C22.1417 20.0401 21.0259 22.7927 21.5311 25.4038C21.5602 25.5543 21.7097 25.6534 21.865 25.6252C22.0203 25.597 22.1226 25.4521 22.0935 25.3016C21.6298 22.9048 22.6535 20.3756 24.8776 18.9321Z" fill="white" stroke="white" stroke-miterlimit="10" stroke-linecap="round" stroke-linejoin="round"/>
<path fill-rule="evenodd" clip-rule="evenodd" d="M51.5714 34.587C51.6268 34.7304 51.5518 34.8902 51.4038 34.9439L46.8218 36.6067C46.7897 36.6183 46.7557 36.6243 46.7214 36.6243H43.2899C43.1319 36.6243 43.0038 36.5002 43.0038 36.347C43.0038 36.1939 43.1319 36.0698 43.2899 36.0698H46.6696L51.2032 34.4245C51.3512 34.3708 51.516 34.4436 51.5714 34.587Z" fill="white" stroke="white" stroke-miterlimit="10" stroke-linecap="round" stroke-linejoin="round"/>
<path fill-rule="evenodd" clip-rule="evenodd" d="M36.3144 42.7434C36.4596 42.6831 36.6278 42.7484 36.69 42.8891L40.0472 50.4875H42.1395C42.2975 50.4875 42.4256 50.6116 42.4256 50.7647C42.4256 50.9179 42.2975 51.042 42.1395 51.042H39.8585C39.7441 51.042 39.6406 50.9759 39.5955 50.8739L36.164 43.1074C36.1018 42.9667 36.1691 42.8037 36.3144 42.7434Z" fill="white" stroke="white" stroke-miterlimit="10" stroke-linecap="round" stroke-linejoin="round"/>
<path fill-rule="evenodd" clip-rule="evenodd" d="M45.9348 26.0174C46.0466 26.1256 46.0466 26.3012 45.9348 26.4095L40.9289 31.2611C40.8171 31.3694 40.636 31.3694 40.5243 31.2611C40.4125 31.1528 40.4125 30.9772 40.5243 30.869L45.5302 26.0174C45.642 25.9091 45.8231 25.9091 45.9348 26.0174Z" fill="white" stroke="white" stroke-miterlimit="10" stroke-linecap="round" stroke-linejoin="round"/>
<path fill-rule="evenodd" clip-rule="evenodd" d="M36.4269 22.7476C36.5849 22.7476 36.713 22.8717 36.713 23.0248V29.6958C36.713 29.8489 36.5849 29.973 36.4269 29.973C36.2689 29.973 36.1408 29.8489 36.1408 29.6958V23.0248C36.1408 22.8717 36.2689 22.7476 36.4269 22.7476Z" fill="white" stroke="white" stroke-miterlimit="10" stroke-linecap="round" stroke-linejoin="round"/>
<path fill-rule="evenodd" clip-rule="evenodd" d="M53.5845 32.1836C52.4828 32.1836 51.5897 33.0492 51.5897 34.1169C51.5897 35.1847 52.4828 36.0502 53.5845 36.0502C54.6863 36.0502 55.5794 35.1847 55.5794 34.1169C55.5794 33.0492 54.6863 32.1836 53.5845 32.1836ZM51.0175 34.1169C51.0175 32.7429 52.1668 31.629 53.5845 31.629C55.0023 31.629 56.1516 32.7429 56.1516 34.1169C56.1516 35.4909 55.0023 36.6048 53.5845 36.6048C52.1668 36.6048 51.0175 35.4909 51.0175 34.1169Z" fill="white" stroke="white" stroke-miterlimit="10" stroke-linecap="round" stroke-linejoin="round"/>
<path fill-rule="evenodd" clip-rule="evenodd" d="M46.7215 22.2065C45.6198 22.2065 44.7267 23.0721 44.7267 24.1399C44.7267 25.2076 45.6198 26.0732 46.7215 26.0732C47.8233 26.0732 48.7164 25.2076 48.7164 24.1399C48.7164 23.0721 47.8233 22.2065 46.7215 22.2065ZM44.1545 24.1399C44.1545 22.7658 45.3038 21.652 46.7215 21.652C48.1393 21.652 49.2886 22.7658 49.2886 24.1399C49.2886 25.5139 48.1393 26.6277 46.7215 26.6277C45.3038 26.6277 44.1545 25.5139 44.1545 24.1399Z" fill="white" stroke="white" stroke-miterlimit="10" stroke-linecap="round" stroke-linejoin="round"/>
<path fill-rule="evenodd" clip-rule="evenodd" d="M36.4271 18.8807C35.3253 18.8807 34.4322 19.7463 34.4322 20.814C34.4322 21.8818 35.3253 22.7474 36.4271 22.7474C37.5288 22.7474 38.4219 21.8818 38.4219 20.814C38.4219 19.7463 37.5288 18.8807 36.4271 18.8807ZM33.86 20.814C33.86 19.44 35.0093 18.3262 36.4271 18.3262C37.8448 18.3262 38.9941 19.44 38.9941 20.814C38.9941 22.1881 37.8448 23.3019 36.4271 23.3019C35.0093 23.3019 33.86 22.1881 33.86 20.814Z" fill="white" stroke="white" stroke-miterlimit="10" stroke-linecap="round" stroke-linejoin="round"/>
<path fill-rule="evenodd" clip-rule="evenodd" d="M50.153 42.1803C49.0513 42.1803 48.1582 43.0459 48.1582 44.1136C48.1582 45.1814 49.0513 46.047 50.153 46.047C51.2548 46.047 52.1479 45.1814 52.1479 44.1136C52.1479 43.0459 51.2548 42.1803 50.153 42.1803ZM47.586 44.1136C47.586 42.7396 48.7353 41.6257 50.153 41.6257C51.5708 41.6257 52.7201 42.7396 52.7201 44.1136C52.7201 45.4876 51.5708 46.6015 50.153 46.6015C48.7353 46.6015 47.586 45.4876 47.586 44.1136Z" fill="white" stroke="white" stroke-miterlimit="10" stroke-linecap="round" stroke-linejoin="round"/>
<path fill-rule="evenodd" clip-rule="evenodd" d="M44.4404 48.8315C43.3387 48.8315 42.4456 49.6971 42.4456 50.7649C42.4456 51.8326 43.3387 52.6982 44.4404 52.6982C45.5422 52.6982 46.4353 51.8326 46.4353 50.7649C46.4353 49.6971 45.5422 48.8315 44.4404 48.8315ZM41.8734 50.7649C41.8734 49.3908 43.0227 48.277 44.4404 48.277C45.8582 48.277 47.0075 49.3908 47.0075 50.7649C47.0075 52.1389 45.8582 53.2527 44.4404 53.2527C43.0227 53.2527 41.8734 52.1389 41.8734 50.7649Z" fill="white" stroke="white" stroke-miterlimit="10" stroke-linecap="round" stroke-linejoin="round"/>
<path fill-rule="evenodd" clip-rule="evenodd" d="M41.3863 40.7157C41.5054 40.6151 41.6861 40.6271 41.7899 40.7426L44.5707 43.8362H47.872C48.03 43.8362 48.1581 43.9604 48.1581 44.1135C48.1581 44.2666 48.03 44.3908 47.872 44.3908H44.4405C44.3578 44.3908 44.2791 44.3561 44.2248 44.2956L41.3585 41.1069C41.2547 40.9914 41.2671 40.8163 41.3863 40.7157Z" fill="white" stroke="white" stroke-miterlimit="10" stroke-linecap="round" stroke-linejoin="round"/>
<path fill-rule="evenodd" clip-rule="evenodd" d="M36.427 29.973C32.7946 29.973 29.85 32.8268 29.85 36.3471C29.85 39.8674 32.7946 42.7212 36.427 42.7212C40.0593 42.7212 43.0039 39.8674 43.0039 36.3471C43.0039 32.8268 40.0593 29.973 36.427 29.973ZM29.2779 36.3471C29.2779 32.5205 32.4786 29.4185 36.427 29.4185C40.3753 29.4185 43.5761 32.5205 43.5761 36.3471C43.5761 40.1737 40.3753 43.2757 36.427 43.2757C32.4786 43.2757 29.2779 40.1737 29.2779 36.3471Z" fill="white" stroke="white" stroke-miterlimit="10" stroke-linecap="round" stroke-linejoin="round"/>
<path opacity="0.4" fill-rule="evenodd" clip-rule="evenodd" d="M37.2775 36.3275C37.2775 35.8723 36.9005 35.5033 36.427 35.5033V32.7306C38.497 32.7306 40.1384 34.357 40.1384 36.3275C40.1384 38.3061 38.4686 39.9245 36.427 39.9245V37.1518C36.8885 37.1518 37.2775 36.7748 37.2775 36.3275Z" fill="white" stroke="white" stroke-miterlimit="10"/>
<path opacity="0.1" fill-rule="evenodd" clip-rule="evenodd" d="M27.5548 36.3471C27.5548 32.0386 31.2458 27.7488 36.4267 27.7488V29.4124C32.282 29.4124 29.2714 32.8695 29.2714 36.3471C29.2714 38.1172 29.878 39.854 31.0554 41.1375C32.2187 42.4056 33.9841 43.2817 36.4267 43.2817V44.9453C33.5202 44.9453 31.2787 43.8847 29.7725 42.2428C28.2804 40.6163 27.5548 38.4699 27.5548 36.3471Z" fill="white" stroke="white" stroke-miterlimit="10"/>
</svg>
