<svg width="1377" height="892" viewBox="0 0 1377 892" fill="none" xmlns="http://www.w3.org/2000/svg">
<rect x="1508.37" y="19" width="388.544" height="1203.35" transform="rotate(43.5022 1508.37 19)" fill="#0E3939"/>
<rect x="407.368" y="179" width="388.544" height="1203.35" transform="rotate(43.5022 407.368 179)" fill="#073636"/>
<rect x="-715" y="-110.956" width="388.544" height="1203.35" transform="rotate(-54.4299 -715 -110.956)" fill="#073636"/>
<path d="M153.085 542.974L638.089 688.178L87.1495 1044.94L153.085 542.974Z" fill="#072B2B"/>
<rect x="383.059" y="391.051" width="398" height="303" transform="rotate(-128.739 383.059 391.051)" fill="#125050"/>
<path d="M405.085 -27.0255L890.089 118.178L339.15 474.936L405.085 -27.0255Z" fill="#072B2B"/>
<path d="M340.826 -125.503L844.184 -72.3346L-63.4689 179.031L340.826 -125.503Z" fill="#568B53"/>
<rect x="1466.83" y="792.552" width="726.825" height="472.415" transform="rotate(-128.739 1466.83 792.552)" fill="#125050"/>
<path d="M763.609 362.733L1187.08 640.193L557.292 825.059L763.609 362.733Z" fill="#072B2B"/>
<path d="M1237.09 576.974L1722.09 722.178L1171.15 1078.94L1237.09 576.974Z" fill="#568B53"/>
<path d="M76.8176 638.948L335.161 945.184L136.291 1035.16L76.8176 638.948Z" fill="#568B53"/>
<path d="M781.924 -319.548L1250.16 -127.015L666.589 173.414L781.924 -319.548Z" fill="#073636"/>
</svg>
